<svg width="138" height="28" viewBox="0 0 138 28" fill="none" xmlns="http://www.w3.org/2000/svg">
<path d="M40.8976 20.9474L36.4235 8.35623H39.2353L42.4715 18.1002H41.7642L45.1772 8.35623H47.1048L50.3764 18.1002H49.7574L53.0467 8.35623H55.6816L51.2075 20.9474H48.997L45.8492 11.9992H46.2913L43.1082 20.9474H40.8976ZM63.9124 19.9924C63.4762 20.3343 62.9457 20.6055 62.3208 20.8059C61.696 20.9945 61.0652 21.0889 60.4286 21.0889C59.4265 21.0889 58.56 20.9002 57.829 20.523C57.1099 20.1457 56.5558 19.6093 56.1667 18.9137C55.7777 18.2181 55.5831 17.3929 55.5831 16.4379C55.5831 15.5183 55.7718 14.7049 56.149 13.9975C56.5263 13.2901 57.0391 12.7419 57.6876 12.3529C58.3478 11.952 59.1141 11.7516 59.9865 11.7516C60.8236 11.7516 61.5486 11.9402 62.1617 12.3175C62.7747 12.683 63.2463 13.2076 63.5764 13.8914C63.9065 14.5634 64.0716 15.3651 64.0716 16.2964V16.6855H57.9351L57.9705 15.3592H62.48L61.7903 15.9074C61.8021 15.1529 61.6547 14.587 61.3482 14.2097C61.0535 13.8207 60.6231 13.6261 60.0572 13.6261C59.4442 13.6261 58.9667 13.8501 58.6248 14.2981C58.2947 14.7343 58.1297 15.3769 58.1297 16.2257C58.1297 17.2278 58.3242 17.9529 58.7132 18.4009C59.1141 18.8489 59.7212 19.0729 60.5347 19.0729C61.0063 19.0729 61.472 18.9962 61.9318 18.843C62.3916 18.6897 62.816 18.4716 63.205 18.1887L63.9124 19.9924ZM65.7481 20.9474V7.93181H68.4184V14.0329L68.2062 13.7145C68.3948 13.1251 68.7603 12.6535 69.3026 12.2998C69.8567 11.9343 70.4993 11.7516 71.2302 11.7516C72.0083 11.7516 72.6921 11.9461 73.2816 12.3352C73.8828 12.7124 74.3544 13.2489 74.6963 13.9444C75.0382 14.64 75.2092 15.4535 75.2092 16.3849C75.2092 17.328 75.0382 18.1533 74.6963 18.8607C74.3544 19.5562 73.8828 20.1044 73.2816 20.5053C72.6921 20.8943 72.0083 21.0889 71.2302 21.0889C70.4993 21.0889 69.8567 20.9179 69.3026 20.576C68.7603 20.2341 68.3948 19.7567 68.2062 19.1436L68.4007 18.7545V20.9474H65.7481ZM70.4698 19.0552C71.1182 19.0552 71.6193 18.8253 71.9729 18.3655C72.3384 17.9057 72.5212 17.2455 72.5212 16.3849C72.5212 15.5596 72.3443 14.923 71.9906 14.475C71.6369 14.027 71.13 13.803 70.4698 13.803C69.7978 13.803 69.2849 14.0329 68.9313 14.4927C68.5776 14.9524 68.4007 15.595 68.4007 16.4202C68.4007 17.2809 68.5776 17.9352 68.9313 18.3832C69.2849 18.8312 69.7978 19.0552 70.4698 19.0552ZM80.4408 21.0889C79.6627 21.0889 78.973 20.9002 78.3717 20.523C77.7705 20.1457 77.3048 19.6093 76.9747 18.9137C76.6446 18.2181 76.4795 17.4047 76.4795 16.4733C76.4795 15.5419 76.6446 14.7225 76.9747 14.0152C77.3166 13.296 77.7823 12.7419 78.3717 12.3529C78.973 11.952 79.6627 11.7516 80.4408 11.7516C81.1599 11.7516 81.7966 11.9284 82.3507 12.2821C82.9048 12.6358 83.282 13.1133 83.4825 13.7145L83.2703 13.856V11.9815H85.9052V20.9474H83.2703V19.1082L83.4825 19.1436C83.282 19.7567 82.9048 20.2341 82.3507 20.576C81.7966 20.9179 81.1599 21.0889 80.4408 21.0889ZM81.2189 19.0552C81.8673 19.0552 82.3684 18.8312 82.722 18.3832C83.0875 17.9352 83.2703 17.2868 83.2703 16.4379C83.2703 15.5891 83.0875 14.9407 82.722 14.4927C82.3684 14.0329 81.8673 13.803 81.2189 13.803C80.5705 13.803 80.0576 14.0388 79.6804 14.5103C79.3149 14.9819 79.1322 15.6362 79.1322 16.4733C79.1322 17.3103 79.309 17.9529 79.6627 18.4009C80.0282 18.8371 80.5469 19.0552 81.2189 19.0552ZM92.2871 24.9087C90.8724 24.9087 89.6345 24.6316 88.5734 24.0775L88.9802 22.0969C89.5107 22.368 90.0471 22.5684 90.5894 22.6981C91.1318 22.8278 91.6682 22.8927 92.1987 22.8927C92.965 22.8927 93.5368 22.7158 93.9141 22.3621C94.2913 22.0084 94.48 21.4661 94.48 20.7352V18.6661L94.6922 18.7722C94.5507 19.1023 94.3326 19.4148 94.0379 19.7095C93.7431 20.0042 93.3835 20.2459 92.9591 20.4345C92.5465 20.6114 92.0985 20.6998 91.6151 20.6998C90.837 20.6998 90.1473 20.5171 89.5461 20.1516C88.9448 19.7743 88.4732 19.2497 88.1313 18.5777C87.7894 17.9057 87.6185 17.1217 87.6185 16.2257C87.6185 15.3297 87.7894 14.5516 88.1313 13.8914C88.4732 13.2194 88.9448 12.6948 89.5461 12.3175C90.1473 11.9402 90.837 11.7516 91.6151 11.7516C92.3461 11.7516 92.9886 11.9343 93.5427 12.2998C94.1086 12.6535 94.4918 13.1251 94.6922 13.7145L94.48 13.8737V11.9815H97.1326V20.523C97.1326 21.9613 96.72 23.0518 95.8947 23.7945C95.0812 24.5373 93.8787 24.9087 92.2871 24.9087ZM92.3932 18.6661C93.0417 18.6661 93.5486 18.4539 93.9141 18.0295C94.2913 17.5933 94.48 16.992 94.48 16.2257C94.48 15.483 94.2972 14.8935 93.9318 14.4573C93.5663 14.0211 93.0534 13.803 92.3932 13.803C91.733 13.803 91.2143 14.0211 90.837 14.4573C90.4598 14.8817 90.2711 15.4712 90.2711 16.2257C90.2711 16.9802 90.4598 17.5756 90.837 18.0118C91.2261 18.448 91.7448 18.6661 92.3932 18.6661ZM107.156 19.9924C106.72 20.3343 106.189 20.6055 105.564 20.8059C104.939 20.9945 104.309 21.0889 103.672 21.0889C102.67 21.0889 101.803 20.9002 101.072 20.523C100.353 20.1457 99.7992 19.6093 99.4101 18.9137C99.0211 18.2181 98.8266 17.3929 98.8266 16.4379C98.8266 15.5183 99.0152 14.7049 99.3925 13.9975C99.7697 13.2901 100.283 12.7419 100.931 12.3529C101.591 11.952 102.358 11.7516 103.23 11.7516C104.067 11.7516 104.792 11.9402 105.405 12.3175C106.018 12.683 106.49 13.2076 106.82 13.8914C107.15 14.5634 107.315 15.3651 107.315 16.2964V16.6855H101.179L101.214 15.3592H105.723L105.034 15.9074C105.046 15.1529 104.898 14.587 104.592 14.2097C104.297 13.8207 103.867 13.6261 103.301 13.6261C102.688 13.6261 102.21 13.8501 101.868 14.2981C101.538 14.7343 101.373 15.3769 101.373 16.2257C101.373 17.2278 101.568 17.9529 101.957 18.4009C102.358 18.8489 102.965 19.0729 103.778 19.0729C104.25 19.0729 104.715 18.9962 105.175 18.843C105.635 18.6897 106.059 18.4716 106.448 18.1887L107.156 19.9924ZM108.992 20.9474V14.5457C108.992 14.1213 108.98 13.6969 108.956 13.2724C108.944 12.8362 108.909 12.4059 108.85 11.9815H111.361L111.556 13.7322L111.361 13.7145C111.668 13.0779 112.092 12.5945 112.634 12.2644C113.189 11.9225 113.825 11.7516 114.544 11.7516C116.655 11.7516 117.71 13.0072 117.71 15.5183V20.9474H115.04V15.6421C115.04 15.0055 114.922 14.5457 114.686 14.2628C114.462 13.9798 114.102 13.8383 113.607 13.8383C113.018 13.8383 112.546 14.027 112.192 14.4042C111.839 14.7815 111.662 15.2884 111.662 15.9251V20.9474H108.992ZM124.064 21.0889C123.097 21.0889 122.26 20.9002 121.553 20.523C120.845 20.1457 120.303 19.6152 119.926 18.9314C119.56 18.2358 119.378 17.4164 119.378 16.4733C119.378 15.5301 119.578 14.7049 119.979 13.9975C120.38 13.2901 120.94 12.7419 121.659 12.3529C122.378 11.952 123.221 11.7516 124.188 11.7516C124.824 11.7516 125.449 11.8518 126.062 12.0522C126.675 12.2527 127.17 12.5238 127.548 12.8657L126.84 14.7225C126.487 14.4396 126.098 14.2215 125.673 14.0682C125.249 13.9032 124.836 13.8207 124.435 13.8207C123.716 13.8207 123.15 14.0388 122.738 14.475C122.325 14.9112 122.119 15.5596 122.119 16.4202C122.119 17.2927 122.319 17.947 122.72 18.3832C123.132 18.8194 123.704 19.0375 124.435 19.0375C124.836 19.0375 125.249 18.9609 125.673 18.8076C126.098 18.6543 126.487 18.4303 126.84 18.1356L127.548 19.9924C127.159 20.3343 126.652 20.6055 126.027 20.8059C125.402 20.9945 124.748 21.0889 124.064 21.0889ZM128.764 24.9794L128.145 22.928C128.699 22.8219 129.153 22.6863 129.507 22.5213C129.872 22.368 130.173 22.1735 130.409 21.9377C130.645 21.7019 130.839 21.4131 130.992 21.0712L131.682 19.5327L132.389 18.4893L135.024 11.9815H137.659L133.539 21.4072C133.173 22.2324 132.755 22.8868 132.283 23.3701C131.812 23.8535 131.281 24.219 130.692 24.4665C130.102 24.7141 129.46 24.8851 128.764 24.9794ZM131.753 21.6194L127.562 11.9815H130.338L132.92 18.4893L131.753 21.6194Z" fill="#333333"/>
<rect width="28" height="28" rx="8.8421" fill="#FFA149"/>
<path d="M10.3781 18.8948H12.3656L14.1978 12.5882H14.2732L16.11 18.8948H18.0976L20.8576 9.24884H18.6298L17.0332 15.9652H16.9484L15.1916 9.24884H13.2841L11.5226 15.9511H11.4425L9.84583 9.24884H7.61803L10.3781 18.8948Z" fill="white"/>
</svg>
