<svg width="26" height="26" viewBox="0 0 26 26" fill="none" xmlns="http://www.w3.org/2000/svg">
<path d="M18.4167 11.9167V3.25H7.58333V7.58333H3.25V22.75H11.9167V18.4167H14.0833V22.75H22.75V11.9167H18.4167ZM7.58333 20.5833H5.41667V18.4167H7.58333V20.5833ZM7.58333 16.25H5.41667V14.0833H7.58333V16.25ZM7.58333 11.9167H5.41667V9.75H7.58333V11.9167ZM11.9167 16.25H9.75V14.0833H11.9167V16.25ZM11.9167 11.9167H9.75V9.75H11.9167V11.9167ZM11.9167 7.58333H9.75V5.41667H11.9167V7.58333ZM16.25 16.25H14.0833V14.0833H16.25V16.25ZM16.25 11.9167H14.0833V9.75H16.25V11.9167ZM16.25 7.58333H14.0833V5.41667H16.25V7.58333ZM20.5833 20.5833H18.4167V18.4167H20.5833V20.5833ZM20.5833 16.25H18.4167V14.0833H20.5833V16.25Z" fill="#6D8DFF"/>
</svg>
