<svg width="26" height="26" viewBox="0 0 26 26" fill="none" xmlns="http://www.w3.org/2000/svg">
<g clip-path="url(#clip0_502_906)">
<path d="M19.5 11.9167C19.5 12.6426 19.5 13.3576 19.5 14.0834C20.8 14.0834 22.49 14.0834 23.8333 14.0834C23.8333 13.3576 23.8333 12.6426 23.8333 11.9167C22.49 11.9167 20.8 11.9167 19.5 11.9167Z" fill="#485BFF"/>
<path d="M17.3333 19.0774C18.3733 19.8466 19.7274 20.8649 20.7999 21.6666C21.2333 21.0924 21.6666 20.5074 22.0999 19.9333C21.0274 19.1316 19.6733 18.1133 18.6333 17.3333C18.1999 17.9183 17.7666 18.5033 17.3333 19.0774Z" fill="#485BFF"/>
<path d="M22.0999 6.06659C21.6666 5.49242 21.2333 4.90742 20.7999 4.33325C19.7274 5.13492 18.3733 6.15325 17.3333 6.93325C17.7666 7.50742 18.1999 8.09242 18.6333 8.66659C19.6733 7.88659 21.0274 6.87909 22.0999 6.06659Z" fill="#485BFF"/>
<path d="M4.33341 9.75C3.14175 9.75 2.16675 10.725 2.16675 11.9167V14.0833C2.16675 15.275 3.14175 16.25 4.33341 16.25H5.41675V20.5833H7.58341V16.25H8.66675L14.0834 19.5V6.5L8.66675 9.75H4.33341ZM9.78258 11.6025L11.9167 10.3242V15.6758L9.78258 14.3975L9.26258 14.0833H8.66675H4.33341V11.9167H8.66675H9.26258L9.78258 11.6025Z" fill="#485BFF"/>
<path d="M16.7917 13C16.7917 11.5592 16.1634 10.2592 15.1667 9.37085V16.6184C16.1634 15.7409 16.7917 14.4409 16.7917 13Z" fill="#485BFF"/>
</g>
<defs>
<clipPath id="clip0_502_906">
<rect width="26" height="26" fill="white"/>
</clipPath>
</defs>
</svg>
