<svg width="32" height="32" viewBox="0 0 32 32" fill="none" xmlns="http://www.w3.org/2000/svg">
<g clip-path="url(#clip0_502_610)">
<path d="M27.96 9.69336C28.48 9.17336 28.48 8.33336 27.96 7.81336L24.1867 4.04002C23.6667 3.52002 22.8267 3.52002 22.3067 4.04002L16.32 10.0267L11.1333 4.84002C10.0933 3.80002 8.4 3.80002 7.36 4.84002L4.82667 7.37336C3.78667 8.41336 3.78667 10.1067 4.82667 11.1467L10.0133 16.3334L4 22.3467V28H9.65333L15.68 21.9734L20.8667 27.16C22.1333 28.4267 23.84 27.96 24.64 27.16L27.1733 24.6267C28.2133 23.5867 28.2133 21.8934 27.1733 20.8534L21.9867 15.6667L27.96 9.69336ZM6.72 9.25336L9.24 6.72002L10.9333 8.41336L9.36 10L11.24 11.88L12.8267 10.2934L14.4267 11.8934L11.8933 14.4267L6.72 9.25336ZM21.6933 19.1734L20.1067 20.76L21.9867 22.64L23.5733 21.0534L25.2667 22.7467L22.7333 25.28L17.5467 20.0934L20.08 17.56L21.6933 19.1734ZM8.54667 25.3334H6.66667V23.4534L19.48 10.64L21.2133 12.3734L21.36 12.52L8.54667 25.3334ZM21.36 8.74669L23.24 6.86669L25.12 8.74669L23.24 10.6267L21.36 8.74669Z" fill="#FFA049"/>
</g>
<defs>
<clipPath id="clip0_502_610">
<rect width="32" height="32" fill="white"/>
</clipPath>
</defs>
</svg>
