<svg width="32" height="32" viewBox="0 0 32 32" fill="none" xmlns="http://www.w3.org/2000/svg">
<g clip-path="url(#clip0_502_594)">
<path d="M15.9867 2.66675C8.62675 2.66675 2.66675 8.64008 2.66675 16.0001C2.66675 23.3601 8.62675 29.3334 15.9867 29.3334C23.3601 29.3334 29.3334 23.3601 29.3334 16.0001C29.3334 8.64008 23.3601 2.66675 15.9867 2.66675ZM25.2267 10.6667H21.2934C20.8667 9.00008 20.2534 7.40008 19.4534 5.92008C21.9067 6.76008 23.9467 8.46675 25.2267 10.6667ZM16.0001 5.38675C17.1067 6.98675 17.9734 8.76008 18.5467 10.6667H13.4534C14.0267 8.76008 14.8934 6.98675 16.0001 5.38675ZM5.68008 18.6667C5.46675 17.8134 5.33341 16.9201 5.33341 16.0001C5.33341 15.0801 5.46675 14.1867 5.68008 13.3334H10.1867C10.0801 14.2134 10.0001 15.0934 10.0001 16.0001C10.0001 16.9067 10.0801 17.7867 10.1867 18.6667H5.68008ZM6.77341 21.3334H10.7067C11.1334 23.0001 11.7467 24.6001 12.5467 26.0801C10.0934 25.2401 8.05341 23.5467 6.77341 21.3334V21.3334ZM10.7067 10.6667H6.77341C8.05341 8.45341 10.0934 6.76008 12.5467 5.92008C11.7467 7.40008 11.1334 9.00008 10.7067 10.6667V10.6667ZM16.0001 26.6134C14.8934 25.0134 14.0267 23.2401 13.4534 21.3334H18.5467C17.9734 23.2401 17.1067 25.0134 16.0001 26.6134ZM19.1201 18.6667H12.8801C12.7601 17.7867 12.6667 16.9067 12.6667 16.0001C12.6667 15.0934 12.7601 14.2001 12.8801 13.3334H19.1201C19.2401 14.2001 19.3334 15.0934 19.3334 16.0001C19.3334 16.9067 19.2401 17.7867 19.1201 18.6667ZM19.4534 26.0801C20.2534 24.6001 20.8667 23.0001 21.2934 21.3334H25.2267C23.9467 23.5334 21.9067 25.2401 19.4534 26.0801V26.0801ZM21.8134 18.6667C21.9201 17.7867 22.0001 16.9067 22.0001 16.0001C22.0001 15.0934 21.9201 14.2134 21.8134 13.3334H26.3201C26.5334 14.1867 26.6667 15.0801 26.6667 16.0001C26.6667 16.9201 26.5334 17.8134 26.3201 18.6667H21.8134Z" fill="#FFA049"/>
</g>
<defs>
<clipPath id="clip0_502_594">
<rect width="32" height="32" fill="white"/>
</clipPath>
</defs>
</svg>
