<svg width="25" height="25" viewBox="0 0 25 25" fill="none" xmlns="http://www.w3.org/2000/svg">
<g clip-path="url(#clip0_256_430)">
<path d="M22.9128 0.769043H2.06165C1.34768 0.769472 0.7689 1.34854 0.769043 2.0628V22.9139C0.769472 23.6279 1.34854 24.2067 2.0628 24.2065H13.2889V15.1428H10.2448V11.5952H13.2889V8.98433C13.2889 5.95665 15.1372 4.3087 17.838 4.3087C19.1317 4.3087 20.2433 4.40512 20.5673 4.44818V7.61261H18.7049C17.2355 7.61261 16.951 8.31084 16.951 9.33566V11.5952H20.4643L20.0066 15.1428H16.951V24.2065H22.9128C23.6272 24.2067 24.2064 23.6278 24.2065 22.9134C24.2065 22.9132 24.2065 22.9131 24.2065 22.9128V2.06165C24.2063 1.34768 23.627 0.7689 22.9128 0.769043Z" fill="#777777"/>
</g>
<defs>
<clipPath id="clip0_256_430">
<rect width="25" height="25" fill="white"/>
</clipPath>
</defs>
</svg>
