<svg width="26" height="26" viewBox="0 0 26 26" fill="none" xmlns="http://www.w3.org/2000/svg">
<path d="M1.08325 23.8116C1.08325 24.4182 1.57075 24.9057 2.17742 24.9057H16.2499C16.8566 24.9057 17.3441 24.4182 17.3441 23.8116V22.7499H1.08325V23.8116ZM9.20825 9.73908C5.14575 9.73908 1.08325 11.9166 1.08325 16.2499H17.3333C17.3333 11.9166 13.2708 9.73908 9.20825 9.73908ZM3.92158 14.0833C5.12408 12.4041 7.68075 11.9058 9.20825 11.9058C10.7358 11.9058 13.2924 12.4041 14.4949 14.0833H3.92158ZM1.08325 18.4166H17.3333V20.5833H1.08325V18.4166ZM19.4999 5.41658V1.08325H17.3333V5.41658H11.9166L12.1658 7.58325H22.5224L21.0057 22.7499H19.4999V24.9166H21.3632C22.2732 24.9166 23.0208 24.2124 23.1291 23.3241L24.9166 5.41658H19.4999Z" fill="#18CA95"/>
</svg>
