<svg width="26" height="26" viewBox="0 0 26 26" fill="none" xmlns="http://www.w3.org/2000/svg">
<path d="M23.8334 13.0001C23.8334 11.8084 22.8584 10.8334 21.6667 10.8334V7.58341C21.6667 6.39175 20.6917 5.41675 19.5001 5.41675H6.50008C5.30841 5.41675 4.33341 6.39175 4.33341 7.58341V10.8334C3.14175 10.8334 2.16675 11.8084 2.16675 13.0001V18.4167H3.60758L4.33341 20.5834H5.41675L6.14258 18.4167H19.8684L20.5834 20.5834H21.6667L22.3926 18.4167H23.8334V13.0001ZM19.5001 10.8334H14.0834V7.58341H19.5001V10.8334ZM6.50008 7.58341H11.9167V10.8334H6.50008V7.58341ZM4.33341 13.0001H21.6667V16.2501H4.33341V13.0001Z" fill="#7838FF"/>
</svg>
