<svg width="26" height="26" viewBox="0 0 26 26" fill="none" xmlns="http://www.w3.org/2000/svg">
<path d="M23.7249 9.63083L22.5874 4.89667C22.3491 3.92167 21.5041 3.25 20.5182 3.25H5.47072C4.49572 3.25 3.63989 3.9325 3.41239 4.89667L2.27489 9.63083C2.01489 10.7358 2.25322 11.8625 2.94655 12.7508C3.03322 12.87 3.15239 12.9567 3.24989 13.065V20.5833C3.24989 21.775 4.22489 22.75 5.41655 22.75H20.5832C21.7749 22.75 22.7499 21.775 22.7499 20.5833V13.065C22.8474 12.9675 22.9666 12.87 23.0532 12.7617C23.7466 11.8733 23.9957 10.7358 23.7249 9.63083ZM20.4857 5.40583L21.6232 10.14C21.7316 10.595 21.6341 11.05 21.3524 11.4075C21.2007 11.6025 20.8757 11.9167 20.3341 11.9167C19.6732 11.9167 19.0991 11.3858 19.0232 10.6817L18.3949 5.41667L20.4857 5.40583ZM14.0832 5.41667H16.2066L16.7916 10.3133C16.8457 10.7358 16.7157 11.1583 16.4341 11.4725C16.1957 11.7542 15.8491 11.9167 15.4049 11.9167C14.6791 11.9167 14.0832 11.2775 14.0832 10.4975V5.41667ZM9.19739 10.3133L9.79322 5.41667H11.9166V10.4975C11.9166 11.2775 11.3207 11.9167 10.5191 11.9167C10.1507 11.9167 9.81489 11.7542 9.55489 11.4725C9.28405 11.1583 9.15405 10.7358 9.19739 10.3133ZM4.37655 10.14L5.47072 5.41667H7.60489L6.97655 10.6817C6.88989 11.3858 6.32655 11.9167 5.66572 11.9167C5.13489 11.9167 4.79905 11.6025 4.65822 11.4075C4.36572 11.0608 4.26822 10.595 4.37655 10.14ZM5.41655 20.5833V14.0508C5.50322 14.0617 5.57905 14.0833 5.66572 14.0833C6.60822 14.0833 7.46405 13.6933 8.09239 13.0542C8.74239 13.7042 9.60905 14.0833 10.5949 14.0833C11.5374 14.0833 12.3824 13.6933 13.0107 13.0758C13.6499 13.6933 14.5166 14.0833 15.4916 14.0833C16.4016 14.0833 17.2682 13.7042 17.9182 13.0542C18.5466 13.6933 19.4024 14.0833 20.3449 14.0833C20.4316 14.0833 20.5074 14.0617 20.5941 14.0508V20.5833H5.41655Z" fill="#FFB320"/>
</svg>
