<svg width="25" height="25" viewBox="0 0 25 25" fill="none" xmlns="http://www.w3.org/2000/svg">
<path d="M8.14449 21.8857C16.9893 21.8857 21.8261 14.5581 21.8261 8.20405C21.8261 7.99594 21.8218 7.78868 21.8125 7.58257C22.7513 6.90376 23.5673 6.05667 24.2112 5.09248C23.3496 5.47561 22.4223 5.73317 21.4498 5.8497C22.4425 5.25416 23.2047 4.31248 23.5642 3.18991C22.6351 3.74073 21.6061 4.14091 20.5108 4.35705C19.6333 3.42239 18.3839 2.83789 17.0006 2.83789C14.3453 2.83789 12.1917 4.99129 12.1917 7.64578C12.1917 8.02331 12.234 8.39024 12.3164 8.74226C8.31993 8.54117 4.77593 6.62784 2.40452 3.71823C1.99173 4.42872 1.75351 5.25431 1.75351 6.13522C1.75351 7.8033 2.60246 9.27631 3.8933 10.1377C3.10441 10.1135 2.36339 9.89693 1.71553 9.53646C1.71481 9.55667 1.71481 9.5763 1.71481 9.5978C1.71481 11.9266 3.37229 13.8711 5.57285 14.3117C5.16866 14.4216 4.74339 14.4808 4.3048 14.4808C3.99549 14.4808 3.69393 14.4504 3.40096 14.3941C4.01312 16.3047 5.78842 17.695 7.89309 17.734C6.24722 19.024 4.17394 19.7924 1.92064 19.7924C1.53307 19.7924 1.14995 19.7701 0.77356 19.7257C2.90174 21.0898 5.4288 21.8858 8.14464 21.8858" fill="#777777"/>
</svg>
