<svg width="26" height="26" viewBox="0 0 26 26" fill="none" xmlns="http://www.w3.org/2000/svg">
<path d="M14.6431 9.43933L15.1694 9.02948C15.3975 8.85187 15.4793 8.54988 15.3708 8.28584L14.6636 6.56486C14.5629 6.31983 14.3191 6.15918 14.048 6.15918H11.9263C11.6551 6.15918 11.4114 6.31983 11.3107 6.56486L10.6034 8.28584C10.4949 8.54984 10.5767 8.85183 10.8049 9.02948L11.3312 9.43933C7.68845 10.2573 5.63135 13.0001 5.63135 16.4421C5.63135 19.884 8.62775 23.6272 12.9871 23.6272C17.0574 23.6272 20.3689 20.4039 20.3689 16.4421C20.3689 13.0342 17.9187 10.1729 14.6431 9.43933ZM12.3752 7.44992H13.5991L13.9569 8.32069L12.9871 9.07586L12.0173 8.32069L12.3752 7.44992ZM12.9871 22.3364C9.64801 22.3364 6.93144 19.6922 6.93144 16.4421C6.93144 13.1919 9.64801 10.5477 12.9871 10.5477C16.3262 10.5477 19.0428 13.1919 19.0428 16.4421C19.0428 19.6922 16.3262 22.3364 12.9871 22.3364Z" fill="#3183FF"/>
<path fill-rule="evenodd" clip-rule="evenodd" d="M11.1111 6.48905C11.2437 6.1664 11.5658 5.95288 11.9262 5.95288H14.048C14.4084 5.95288 14.7305 6.1664 14.8631 6.48905L15.5703 8.21003C15.713 8.5572 15.6059 8.95502 15.3044 9.18979L15.1069 9.34358C18.2686 10.2388 20.5834 13.083 20.5834 16.442C20.5834 20.5155 17.1784 23.8334 12.9871 23.8334C8.49078 23.8334 5.41675 19.9794 5.41675 16.442C5.41675 13.0437 7.37946 10.2942 10.8653 9.34206L10.6698 9.18978C10.3683 8.95498 10.2612 8.55718 10.4039 8.21003C10.4039 8.21002 10.4039 8.21004 10.4039 8.21003L11.1111 6.48905ZM11.9262 6.36547C11.7444 6.36547 11.579 6.47326 11.5102 6.64066L10.803 8.36164C10.7286 8.54248 10.7852 8.74867 10.9399 8.86917L11.8069 9.54434L11.3799 9.64021C7.84045 10.435 5.84588 13.0897 5.84588 16.442C5.84588 19.7886 8.76464 23.4209 12.9871 23.4209C16.9364 23.4209 20.1543 20.2924 20.1543 16.442C20.1543 13.1307 17.7735 10.3522 14.5944 9.64024L14.167 9.54454L15.0343 8.86916C15.189 8.74873 15.2456 8.54255 15.1712 8.36165L14.464 6.64066C14.3952 6.47326 14.2298 6.36547 14.048 6.36547H11.9262ZM12.2292 7.24362H13.745L14.2143 8.3857L12.9871 9.34132L11.7599 8.3857L12.2292 7.24362ZM12.5211 7.6562L12.2747 8.25567L12.9871 8.81039L13.6995 8.25567L13.4531 7.6562H12.5211ZM12.9871 10.754C9.76896 10.754 7.14597 13.3034 7.14597 16.442C7.14597 19.5807 9.76896 22.1301 12.9871 22.1301C16.2052 22.1301 18.8282 19.5807 18.8282 16.442C18.8282 13.3034 16.2052 10.754 12.9871 10.754ZM6.71684 16.442C6.71684 13.0804 9.527 10.3414 12.9871 10.3414C16.4472 10.3414 19.2574 13.0804 19.2574 16.442C19.2574 19.8037 16.4472 22.5427 12.9871 22.5427C9.527 22.5427 6.71684 19.8037 6.71684 16.442Z" fill="#3183FF"/>
<path d="M12.987 4.69637C13.3532 4.69637 13.65 4.40742 13.65 4.051V3.01842C13.65 2.662 13.3532 2.37305 12.987 2.37305C12.6208 2.37305 12.324 2.662 12.324 3.01842V4.051C12.324 4.40742 12.6208 4.69637 12.987 4.69637Z" fill="#3183FF"/>
<path fill-rule="evenodd" clip-rule="evenodd" d="M12.1094 3.01841C12.1094 2.55046 12.4998 2.16675 12.987 2.16675C13.4741 2.16675 13.8646 2.55046 13.8646 3.01841V4.051C13.8646 4.51895 13.4741 4.90266 12.987 4.90266C12.4998 4.90266 12.1094 4.51895 12.1094 4.051V3.01841ZM12.987 2.57933C12.7418 2.57933 12.5385 2.77353 12.5385 3.01841V4.051C12.5385 4.29588 12.7418 4.49007 12.987 4.49007C13.2322 4.49007 13.4354 4.29588 13.4354 4.051V3.01841C13.4354 2.77353 13.2322 2.57933 12.987 2.57933Z" fill="#3183FF"/>
<path d="M10.0428 5.19587C10.3017 5.4479 10.7215 5.44795 10.9805 5.19587C11.2394 4.94383 11.2394 4.53522 10.9805 4.28318L10.2732 3.59479C10.0143 3.34275 9.5945 3.34275 9.33556 3.59479C9.07662 3.84683 9.07662 4.25543 9.33556 4.50747L10.0428 5.19587Z" fill="#3183FF"/>
<path fill-rule="evenodd" clip-rule="evenodd" d="M10.424 3.44688C10.0811 3.11309 9.52395 3.11307 9.18105 3.44688C8.83956 3.77928 8.83956 4.31712 9.18105 4.64951L9.88823 5.33785C9.88825 5.33787 9.88821 5.33783 9.88823 5.33785C10.0593 5.50449 10.2847 5.58827 10.5097 5.58827C11.2888 5.58827 11.6818 4.67121 11.1313 4.13529L10.424 3.44688ZM9.48636 3.73681C9.66124 3.56656 9.94376 3.56654 10.1187 3.73683L10.8259 4.42521C10.8259 4.42521 10.8259 4.42521 10.8259 4.42521C11.1131 4.70478 10.9015 5.17569 10.5097 5.17569C10.3954 5.17569 10.2814 5.13346 10.1936 5.04801L9.48635 4.35957C9.30997 4.18788 9.30998 3.9085 9.48636 3.73681Z" fill="#3183FF"/>
<path d="M15.4624 5.38492C15.632 5.38492 15.8017 5.32193 15.9312 5.19587L16.6384 4.50747C16.8973 4.25543 16.8973 3.84683 16.6384 3.59479C16.3795 3.34275 15.9597 3.34275 15.7007 3.59479L14.9935 4.28318C14.5746 4.69093 14.877 5.38492 15.4624 5.38492Z" fill="#3183FF"/>
<path fill-rule="evenodd" clip-rule="evenodd" d="M15.5482 3.44981C15.8911 3.11602 16.4482 3.116 16.7911 3.44981C17.1326 3.7822 17.1326 4.32005 16.7911 4.65244L16.0839 5.34078C16.0839 5.3408 16.084 5.34076 16.0839 5.34078C15.9128 5.50742 15.6875 5.5912 15.4624 5.5912C14.6834 5.5912 14.2904 4.67414 14.8409 4.13822L15.5482 3.44981ZM16.4858 3.73974C16.3109 3.56949 16.0284 3.56947 15.8535 3.73976L15.1462 4.42814C15.1462 4.42814 15.1462 4.42814 15.1462 4.42814C14.8591 4.70771 15.0707 5.17862 15.4624 5.17862C15.5767 5.17862 15.6908 5.13639 15.7785 5.05094L16.4858 4.3625C16.6622 4.19081 16.6622 3.91143 16.4858 3.73974Z" fill="#3183FF"/>
<path fill-rule="evenodd" clip-rule="evenodd" d="M8.43433 16.442C8.43433 14.0166 10.4546 12.0105 12.9871 12.0105C15.4976 12.0105 17.54 13.9985 17.54 16.442C17.54 18.8856 15.4976 20.8736 12.9871 20.8736C10.4565 20.8736 8.43433 18.8697 8.43433 16.442ZM12.9871 19.6015C14.7798 19.6015 16.233 18.1869 16.233 16.442C16.233 14.6971 14.7798 13.2826 12.9871 13.2826C11.1945 13.2826 9.74124 14.6971 9.74124 16.442C9.74124 18.1869 11.1945 19.6015 12.9871 19.6015Z" fill="#3183FF"/>
<path fill-rule="evenodd" clip-rule="evenodd" d="M8.21973 16.442C8.21973 13.9062 10.3324 11.8042 12.9871 11.8042C15.6185 11.8042 17.7545 13.887 17.7545 16.442C17.7545 18.9971 15.6185 21.0798 12.9871 21.0798C10.3344 21.0798 8.21973 18.9801 8.21973 16.442ZM12.9871 12.2168C10.5768 12.2168 8.64886 14.1269 8.64886 16.442C8.64886 18.7592 10.5785 20.6673 12.9871 20.6673C15.3765 20.6673 17.3254 18.774 17.3254 16.442C17.3254 14.11 15.3765 12.2168 12.9871 12.2168ZM12.9871 13.4889C11.3154 13.4889 9.95577 14.8087 9.95577 16.442C9.95577 18.0754 11.3154 19.3952 12.9871 19.3952C14.6588 19.3952 16.0184 18.0754 16.0184 16.442C16.0184 14.8087 14.6588 13.4889 12.9871 13.4889ZM9.52664 16.442C9.52664 14.5856 11.0735 13.0763 12.9871 13.0763C14.9007 13.0763 16.4476 14.5856 16.4476 16.442C16.4476 18.2985 14.9007 19.8077 12.9871 19.8077C11.0735 19.8077 9.52664 18.2985 9.52664 16.442Z" fill="#3183FF"/>
</svg>
